<svg width="17" height="16" viewBox="0 0 17 16" fill="none" xmlns="http://www.w3.org/2000/svg">
<path d="M8.16467 2.66659C7.45743 2.66659 6.77915 2.94754 6.27906 3.44763C5.77896 3.94773 5.49801 4.62601 5.49801 5.33325C5.49801 6.0405 5.77896 6.71877 6.27906 7.21887C6.77915 7.71897 7.45743 7.99992 8.16467 7.99992C8.87192 7.99992 9.55019 7.71897 10.0503 7.21887C10.5504 6.71877 10.8313 6.0405 10.8313 5.33325C10.8313 4.62601 10.5504 3.94773 10.0503 3.44763C9.55019 2.94754 8.87192 2.66659 8.16467 2.66659ZM4.16467 5.33325C4.16467 4.27239 4.5861 3.25497 5.33625 2.50482C6.08639 1.75468 7.10381 1.33325 8.16467 1.33325C9.22554 1.33325 10.243 1.75468 10.9931 2.50482C11.7432 3.25497 12.1647 4.27239 12.1647 5.33325C12.1647 6.39412 11.7432 7.41153 10.9931 8.16168C10.243 8.91183 9.22554 9.33325 8.16467 9.33325C7.10381 9.33325 6.08639 8.91183 5.33625 8.16168C4.5861 7.41153 4.16467 6.39412 4.16467 5.33325ZM5.49801 11.9999C4.96757 11.9999 4.45887 12.2106 4.08379 12.5857C3.70872 12.9608 3.49801 13.4695 3.49801 13.9999C3.49801 14.1767 3.42777 14.3463 3.30274 14.4713C3.17772 14.5963 3.00815 14.6666 2.83134 14.6666C2.65453 14.6666 2.48496 14.5963 2.35993 14.4713C2.23491 14.3463 2.16467 14.1767 2.16467 13.9999C2.16467 13.1159 2.51586 12.268 3.14098 11.6429C3.76611 11.0178 4.61395 10.6666 5.49801 10.6666H10.8313C11.7154 10.6666 12.5632 11.0178 13.1884 11.6429C13.8135 12.268 14.1647 13.1159 14.1647 13.9999C14.1647 14.1767 14.0944 14.3463 13.9694 14.4713C13.8444 14.5963 13.6748 14.6666 13.498 14.6666C13.3212 14.6666 13.1516 14.5963 13.0266 14.4713C12.9016 14.3463 12.8313 14.1767 12.8313 13.9999C12.8313 13.4695 12.6206 12.9608 12.2456 12.5857C11.8705 12.2106 11.3618 11.9999 10.8313 11.9999H5.49801Z" fill="#E72D38"/>
</svg>
