<svg width="17" height="16" viewBox="0 0 17 16" fill="none" xmlns="http://www.w3.org/2000/svg">
<path d="M2.83313 7.33337V9.33337C2.83313 11.8474 2.83313 13.1047 3.61446 13.8854C4.3958 14.666 5.65246 14.6667 8.16646 14.6667H8.83313C11.3471 14.6667 12.6045 14.6667 13.3851 13.8854C14.1658 13.104 14.1665 11.8474 14.1665 9.33337V7.33337" stroke="#5D5D5D" stroke-width="0.819546"/>
<path d="M6.832 1.33337H10.1653L10.6 5.67804C10.6286 5.97122 10.5956 6.26714 10.503 6.54679C10.4105 6.82644 10.2604 7.08362 10.0625 7.30181C9.86457 7.51999 9.6232 7.69434 9.35387 7.81366C9.08455 7.93298 8.79324 7.99462 8.49866 7.99462C8.20409 7.99462 7.91278 7.93298 7.64345 7.81366C7.37413 7.69434 7.13275 7.51999 6.93484 7.30181C6.73693 7.08362 6.58687 6.82644 6.49429 6.54679C6.40172 6.26714 6.36869 5.97122 6.39733 5.67804L6.832 1.33337Z" stroke="#5D5D5D" stroke-width="0.819546"/>
<path d="M2.72036 3.56737C2.83903 2.97404 2.89836 2.67737 3.01903 2.43671C3.14476 2.18607 3.32179 1.96466 3.53863 1.78687C3.75547 1.60908 4.00727 1.47888 4.27769 1.40471C4.53769 1.33337 4.84036 1.33337 5.44569 1.33337H6.83369L6.35036 6.16337C6.32485 6.43979 6.2432 6.7081 6.1104 6.95187C5.9776 7.19563 5.79644 7.40973 5.57802 7.58105C5.3596 7.75238 5.10852 7.87732 4.84013 7.94823C4.57175 8.01915 4.29172 8.03454 4.01718 7.99347C3.74264 7.9524 3.47937 7.85573 3.24349 7.70938C3.00761 7.56303 2.80407 7.37008 2.64535 7.14234C2.48663 6.9146 2.37606 6.65686 2.32041 6.3849C2.26476 6.11295 2.26519 5.83249 2.32169 5.56071L2.72036 3.56737ZM14.2804 3.56737C14.1617 2.97404 14.1024 2.67737 13.9817 2.43671C13.856 2.18607 13.6789 1.96466 13.4621 1.78687C13.2453 1.60908 12.9934 1.47888 12.723 1.40471C12.463 1.33337 12.1604 1.33337 11.555 1.33337H10.167L10.6504 6.16337C10.6759 6.43979 10.7575 6.7081 10.8903 6.95187C11.0231 7.19563 11.2043 7.40973 11.4227 7.58105C11.6411 7.75238 11.8922 7.87732 12.1606 7.94823C12.429 8.01915 12.709 8.03454 12.9835 7.99347C13.2581 7.9524 13.5214 7.85573 13.7572 7.70938C13.9931 7.56303 14.1966 7.37008 14.3554 7.14234C14.5141 6.9146 14.6247 6.65686 14.6803 6.3849C14.736 6.11295 14.7355 5.83249 14.679 5.56071L14.2804 3.56737Z" stroke="#5D5D5D" stroke-width="0.819546"/>
<path d="M6.83331 14.3334V12.3334C6.83331 11.7101 6.83331 11.3987 6.96731 11.1667C7.05508 11.0147 7.18131 10.8885 7.33331 10.8007C7.56531 10.6667 7.87665 10.6667 8.49998 10.6667C9.12331 10.6667 9.43465 10.6667 9.66665 10.8007C9.81865 10.8885 9.94488 11.0147 10.0326 11.1667C10.1666 11.3987 10.1666 11.7101 10.1666 12.3334V14.3334" stroke="#5D5D5D" stroke-width="0.819546" stroke-linecap="round"/>
</svg>
