<svg width="16" height="16" viewBox="0 0 16 16" fill="none" xmlns="http://www.w3.org/2000/svg">
<path d="M12.3331 12.3333L13.9998 14M2.66644 4H13.3331M2.66644 8H5.33311M2.66644 12H5.33311M7.33311 10C7.33311 10.7072 7.61406 11.3855 8.11416 11.8856C8.61426 12.3857 9.29253 12.6667 9.99978 12.6667C10.707 12.6667 11.3853 12.3857 11.8854 11.8856C12.3855 11.3855 12.6664 10.7072 12.6664 10C12.6664 9.29276 12.3855 8.61448 11.8854 8.11438C11.3853 7.61428 10.707 7.33333 9.99978 7.33333C9.29253 7.33333 8.61426 7.61428 8.11416 8.11438C7.61406 8.61448 7.33311 9.29276 7.33311 10Z" stroke="#717171" stroke-width="1.09273" stroke-linecap="round" stroke-linejoin="round"/>
</svg>
